# xmcd
#
# Track frame offsets:
#	150
#	18168
#	40361
#	69528
#	88547
#	112477
#	136574
#	158549
#	171940
#	190081
#	208958
#	233524
#
# Disc length: 3371 seconds
#
# Revision: 0
# Processed by: cddbd v1.4PL0 Copyright (c) Steve Scherf et al.
# Submitted via: EasyCDDAExtractor 4.6.0.1
#
DISCID=9b0d290c
DTITLE=Tino Gonzales - Tequila Nights
DYEAR=1999
DGENRE=Blues
TTITLE0=Tequila Nights
TTITLE1=Strange Brew
TTITLE2=Happy Man's Blues
TTITLE3=Choose A Way
TTITLE4=The Blues Is Where I Live
TTITLE5=Chicago Way
TTITLE6=I Got The Blues From Falling In Love
TTITLE7=Catalina
TTITLE8=Dead Man's Shoes
TTITLE9=Same Old Story
TTITLE10=Weeping For Nicki
TTITLE11=For You
EXTD=
EXTT0=
EXTT1=
EXTT2=
EXTT3=
EXTT4=
EXTT5=
EXTT6=
EXTT7=
EXTT8=
EXTT9=
EXTT10=
EXTT11=
PLAYORDER=
